<svg width="93" height="94" viewBox="0 0 93 94" fill="none" xmlns="http://www.w3.org/2000/svg">
<path d="M0 46.7031C0 21.0219 20.8188 0.203125 46.5 0.203125C72.1812 0.203125 93 21.0219 93 46.7031C93 72.3844 72.1812 93.2031 46.5 93.2031C20.8188 93.2031 0 72.3844 0 46.7031Z" fill="#F4F0EC"/>
<g clip-path="url(#clip0_2_92)">
<path d="M62.0012 55.278C60.7796 54.0473 57.8211 52.2513 56.3857 51.5274C54.5164 50.5859 54.3625 50.509 52.8933 51.6005C51.9133 52.3289 51.2617 52.9797 50.1148 52.7351C48.9678 52.4905 46.4754 51.1113 44.2931 48.936C42.1107 46.7607 40.6514 44.1962 40.4061 43.0532C40.1607 41.9102 40.8222 41.2663 41.5438 40.2841C42.5607 38.8995 42.4838 38.6688 41.6145 36.7996C40.9368 35.3459 39.0883 32.4152 37.8529 31.1999C36.5313 29.8945 36.5313 30.1253 35.6798 30.4791C34.9865 30.7708 34.3214 31.1253 33.6928 31.5383C32.462 32.356 31.7789 33.0352 31.3012 34.0559C30.8235 35.0766 30.6089 37.4696 33.0759 41.9509C35.5429 46.4323 37.2737 48.7237 40.8561 52.2959C44.4385 55.868 47.1931 57.7887 51.2202 60.0471C56.2018 62.837 58.1126 62.2931 59.1365 61.8162C60.1604 61.3393 60.8427 60.6624 61.662 59.4317C62.076 58.8042 62.4314 58.1399 62.7235 57.4472C63.0781 56.5988 63.3089 56.5988 62.0012 55.278Z" stroke="#CDA274" stroke-width="2" stroke-miterlimit="10"/>
</g>
<defs>
<clipPath id="clip0_2_92">
<rect width="34" height="34" fill="white" transform="translate(30 29.2031)"/>
</clipPath>
</defs>
</svg>
