<svg width="263" height="71" viewBox="0 0 263 71" fill="none" xmlns="http://www.w3.org/2000/svg">
<path d="M1 18C1 8.61116 8.61116 1 18 1H245C254.389 1 262 8.61116 262 18V53C262 62.3888 254.389 70 245 70H18C8.61117 70 1 62.3888 1 53V18Z" fill="#292F36"/>
<path d="M1 18C1 8.61116 8.61116 1 18 1H245C254.389 1 262 8.61116 262 18V53C262 62.3888 254.389 70 245 70H18C8.61117 70 1 62.3888 1 53V18Z" stroke="#292F36" stroke-width="2"/>
<path d="M212 36L236 35" stroke="#CDA274" stroke-width="2" stroke-linecap="square" stroke-linejoin="round"/>
<path d="M227.217 18L238 35.8206L227 54" stroke="#CDA274" stroke-width="2" stroke-linecap="square" stroke-linejoin="round"/>
<path d="M41.29 36.05H45.484C45.376 36.542 45.202 37.004 44.962 37.436C44.734 37.868 44.44 38.252 44.08 38.588C43.72 38.924 43.288 39.188 42.784 39.38C42.292 39.56 41.734 39.65 41.11 39.65C40.222 39.65 39.418 39.44 38.698 39.02C37.978 38.6 37.402 38.018 36.97 37.274C36.55 36.53 36.34 35.672 36.34 34.7C36.34 33.716 36.55 32.858 36.97 32.126C37.402 31.382 37.978 30.8 38.698 30.38C39.418 29.96 40.222 29.75 41.11 29.75C42.07 29.75 42.904 29.942 43.612 30.326C44.32 30.698 44.872 31.22 45.268 31.892L46.348 30.902C45.988 30.314 45.544 29.822 45.016 29.426C44.5 29.03 43.912 28.73 43.252 28.526C42.604 28.322 41.89 28.22 41.11 28.22C40.198 28.22 39.352 28.382 38.572 28.706C37.792 29.018 37.114 29.468 36.538 30.056C35.962 30.632 35.512 31.316 35.188 32.108C34.876 32.9 34.72 33.764 34.72 34.7C34.72 35.636 34.876 36.5 35.188 37.292C35.512 38.084 35.962 38.774 36.538 39.362C37.114 39.938 37.792 40.388 38.572 40.712C39.352 41.024 40.198 41.18 41.11 41.18C42.07 41.18 42.922 41.006 43.666 40.658C44.422 40.298 45.058 39.812 45.574 39.2C46.09 38.588 46.48 37.892 46.744 37.112C47.008 36.32 47.14 35.486 47.14 34.61H41.29V36.05ZM53.231 41.18C54.119 41.18 54.887 41.006 55.535 40.658C56.195 40.298 56.741 39.77 57.173 39.074L56.003 38.336C55.703 38.84 55.337 39.218 54.905 39.47C54.473 39.71 53.975 39.83 53.411 39.83C52.847 39.83 52.367 39.71 51.971 39.47C51.575 39.23 51.275 38.882 51.071 38.426C50.867 37.97 50.765 37.418 50.765 36.77C50.777 36.134 50.885 35.6 51.089 35.168C51.305 34.724 51.605 34.388 51.989 34.16C52.385 33.92 52.859 33.8 53.411 33.8C53.879 33.8 54.287 33.902 54.635 34.106C54.983 34.31 55.253 34.592 55.445 34.952C55.649 35.312 55.751 35.738 55.751 36.23C55.751 36.314 55.733 36.422 55.697 36.554C55.661 36.674 55.625 36.764 55.589 36.824L56.165 35.996H50.225V37.22H57.299C57.299 37.196 57.299 37.142 57.299 37.058C57.311 36.962 57.317 36.872 57.317 36.788C57.317 35.912 57.161 35.156 56.849 34.52C56.537 33.884 56.087 33.398 55.499 33.062C54.923 32.714 54.227 32.54 53.411 32.54C52.595 32.54 51.875 32.72 51.251 33.08C50.639 33.44 50.159 33.944 49.811 34.592C49.475 35.24 49.307 35.996 49.307 36.86C49.307 37.712 49.469 38.462 49.793 39.11C50.129 39.758 50.591 40.268 51.179 40.64C51.779 41 52.463 41.18 53.231 41.18ZM58.7507 32.72V34.07H62.8907V32.72H58.7507ZM60.1007 29.84V41H61.5407V29.84H60.1007ZM72.1074 29.84H77.7414V28.4H72.1074V29.84ZM72.1074 34.88H77.5614V33.44H72.1074V34.88ZM71.2614 28.4V41H72.7914V28.4H71.2614ZM81.9798 32.72H80.5398V41H81.9798V32.72ZM84.4818 34.304L85.2738 33.116C85.0578 32.888 84.8178 32.738 84.5538 32.666C84.3018 32.582 84.0258 32.54 83.7258 32.54C83.3418 32.54 82.9638 32.69 82.5918 32.99C82.2198 33.29 81.9138 33.698 81.6738 34.214C81.4458 34.718 81.3318 35.3 81.3318 35.96H81.9798C81.9798 35.564 82.0158 35.21 82.0878 34.898C82.1718 34.586 82.3158 34.34 82.5198 34.16C82.7238 33.98 83.0058 33.89 83.3658 33.89C83.6058 33.89 83.8038 33.926 83.9598 33.998C84.1158 34.058 84.2898 34.16 84.4818 34.304ZM90.3701 41.18C91.2581 41.18 92.0261 41.006 92.6741 40.658C93.3341 40.298 93.8801 39.77 94.3121 39.074L93.1421 38.336C92.8421 38.84 92.4761 39.218 92.0441 39.47C91.6121 39.71 91.1141 39.83 90.5501 39.83C89.9861 39.83 89.5061 39.71 89.1101 39.47C88.7141 39.23 88.4141 38.882 88.2101 38.426C88.0061 37.97 87.9041 37.418 87.9041 36.77C87.9161 36.134 88.0241 35.6 88.2281 35.168C88.4441 34.724 88.7441 34.388 89.1281 34.16C89.5241 33.92 89.9981 33.8 90.5501 33.8C91.0181 33.8 91.4261 33.902 91.7741 34.106C92.1221 34.31 92.3921 34.592 92.5841 34.952C92.7881 35.312 92.8901 35.738 92.8901 36.23C92.8901 36.314 92.8721 36.422 92.8361 36.554C92.8001 36.674 92.7641 36.764 92.7281 36.824L93.3041 35.996H87.3641V37.22H94.4381C94.4381 37.196 94.4381 37.142 94.4381 37.058C94.4501 36.962 94.4561 36.872 94.4561 36.788C94.4561 35.912 94.3001 35.156 93.9881 34.52C93.6761 33.884 93.2261 33.398 92.6381 33.062C92.0621 32.714 91.3661 32.54 90.5501 32.54C89.7341 32.54 89.0141 32.72 88.3901 33.08C87.7781 33.44 87.2981 33.944 86.9501 34.592C86.6141 35.24 86.4461 35.996 86.4461 36.86C86.4461 37.712 86.6081 38.462 86.9321 39.11C87.2681 39.758 87.7301 40.268 88.3181 40.64C88.9181 41 89.6021 41.18 90.3701 41.18ZM100.354 41.18C101.242 41.18 102.01 41.006 102.658 40.658C103.318 40.298 103.864 39.77 104.296 39.074L103.126 38.336C102.826 38.84 102.46 39.218 102.028 39.47C101.596 39.71 101.098 39.83 100.534 39.83C99.9698 39.83 99.4898 39.71 99.0938 39.47C98.6978 39.23 98.3978 38.882 98.1938 38.426C97.9898 37.97 97.8878 37.418 97.8878 36.77C97.8998 36.134 98.0078 35.6 98.2118 35.168C98.4278 34.724 98.7278 34.388 99.1118 34.16C99.5078 33.92 99.9818 33.8 100.534 33.8C101.002 33.8 101.41 33.902 101.758 34.106C102.106 34.31 102.376 34.592 102.568 34.952C102.772 35.312 102.874 35.738 102.874 36.23C102.874 36.314 102.856 36.422 102.82 36.554C102.784 36.674 102.748 36.764 102.712 36.824L103.288 35.996H97.3478V37.22H104.422C104.422 37.196 104.422 37.142 104.422 37.058C104.434 36.962 104.44 36.872 104.44 36.788C104.44 35.912 104.284 35.156 103.972 34.52C103.66 33.884 103.21 33.398 102.622 33.062C102.046 32.714 101.35 32.54 100.534 32.54C99.7178 32.54 98.9978 32.72 98.3738 33.08C97.7618 33.44 97.2818 33.944 96.9338 34.592C96.5978 35.24 96.4298 35.996 96.4298 36.86C96.4298 37.712 96.5918 38.462 96.9158 39.11C97.2518 39.758 97.7138 40.268 98.3018 40.64C98.9018 41 99.5858 41.18 100.354 41.18ZM114.186 41H120.54V39.56H114.186V41ZM114.186 29.84H120.54V28.4H114.186V29.84ZM114.186 34.88H120.18V33.44H114.186V34.88ZM113.34 28.4V41H114.87V28.4H113.34ZM124.208 38.462L123.074 39.164C123.23 39.488 123.458 39.806 123.758 40.118C124.07 40.43 124.448 40.688 124.892 40.892C125.336 41.084 125.834 41.18 126.386 41.18C127.238 41.18 127.922 40.94 128.438 40.46C128.966 39.98 129.23 39.38 129.23 38.66C129.23 38.168 129.11 37.766 128.87 37.454C128.642 37.142 128.33 36.878 127.934 36.662C127.538 36.434 127.1 36.224 126.62 36.032C126.332 35.912 126.056 35.786 125.792 35.654C125.528 35.522 125.312 35.372 125.144 35.204C124.976 35.036 124.892 34.844 124.892 34.628C124.892 34.352 125 34.148 125.216 34.016C125.432 33.884 125.69 33.818 125.99 33.818C126.422 33.818 126.806 33.92 127.142 34.124C127.49 34.328 127.778 34.586 128.006 34.898L129.158 34.16C128.99 33.848 128.756 33.572 128.456 33.332C128.156 33.092 127.808 32.9 127.412 32.756C127.028 32.612 126.614 32.54 126.17 32.54C125.726 32.54 125.294 32.618 124.874 32.774C124.466 32.93 124.13 33.17 123.866 33.494C123.614 33.818 123.488 34.226 123.488 34.718C123.488 35.198 123.608 35.6 123.848 35.924C124.1 36.236 124.406 36.494 124.766 36.698C125.138 36.89 125.504 37.058 125.864 37.202C126.188 37.322 126.494 37.454 126.782 37.598C127.07 37.73 127.304 37.898 127.484 38.102C127.676 38.294 127.772 38.534 127.772 38.822C127.772 39.146 127.652 39.404 127.412 39.596C127.184 39.776 126.866 39.866 126.458 39.866C126.122 39.866 125.81 39.806 125.522 39.686C125.246 39.554 125 39.38 124.784 39.164C124.568 38.948 124.376 38.714 124.208 38.462ZM130.586 32.72V34.07H134.726V32.72H130.586ZM131.936 29.84V41H133.376V29.84H131.936ZM136.89 29.3C136.89 29.564 136.986 29.798 137.178 30.002C137.382 30.194 137.616 30.29 137.88 30.29C138.156 30.29 138.39 30.194 138.582 30.002C138.774 29.798 138.87 29.564 138.87 29.3C138.87 29.024 138.774 28.79 138.582 28.598C138.39 28.406 138.156 28.31 137.88 28.31C137.616 28.31 137.382 28.406 137.178 28.598C136.986 28.79 136.89 29.024 136.89 29.3ZM137.16 32.72V41H138.6V32.72H137.16ZM153.626 35.78C153.626 35.096 153.518 34.514 153.302 34.034C153.098 33.542 152.798 33.17 152.402 32.918C152.006 32.666 151.526 32.54 150.962 32.54C150.41 32.54 149.918 32.672 149.486 32.936C149.054 33.188 148.694 33.572 148.406 34.088C148.214 33.596 147.908 33.218 147.488 32.954C147.08 32.678 146.588 32.54 146.012 32.54C145.496 32.54 145.046 32.654 144.662 32.882C144.29 33.11 143.978 33.458 143.726 33.926V32.72H142.286V41H143.726V35.96C143.726 35.528 143.804 35.156 143.96 34.844C144.116 34.532 144.338 34.298 144.626 34.142C144.914 33.974 145.256 33.89 145.652 33.89C146.192 33.89 146.588 34.058 146.84 34.394C147.104 34.73 147.236 35.252 147.236 35.96V41H148.676V35.96C148.676 35.528 148.754 35.156 148.91 34.844C149.066 34.532 149.288 34.298 149.576 34.142C149.864 33.974 150.206 33.89 150.602 33.89C151.142 33.89 151.538 34.058 151.79 34.394C152.054 34.73 152.186 35.252 152.186 35.96V41H153.626V35.78ZM157.699 38.444C157.699 38.144 157.771 37.886 157.915 37.67C158.059 37.454 158.275 37.286 158.563 37.166C158.863 37.046 159.247 36.986 159.715 36.986C160.219 36.986 160.693 37.052 161.137 37.184C161.581 37.304 162.013 37.508 162.433 37.796V36.95C162.349 36.842 162.187 36.704 161.947 36.536C161.707 36.356 161.383 36.2 160.975 36.068C160.579 35.924 160.081 35.852 159.481 35.852C158.461 35.852 157.663 36.098 157.087 36.59C156.523 37.07 156.241 37.712 156.241 38.516C156.241 39.08 156.373 39.56 156.637 39.956C156.901 40.352 157.249 40.658 157.681 40.874C158.125 41.078 158.599 41.18 159.103 41.18C159.559 41.18 160.015 41.096 160.471 40.928C160.939 40.76 161.329 40.502 161.641 40.154C161.965 39.806 162.127 39.368 162.127 38.84L161.839 37.76C161.839 38.192 161.731 38.576 161.515 38.912C161.311 39.236 161.029 39.488 160.669 39.668C160.321 39.848 159.925 39.938 159.481 39.938C159.133 39.938 158.821 39.884 158.545 39.776C158.281 39.656 158.071 39.482 157.915 39.254C157.771 39.026 157.699 38.756 157.699 38.444ZM157.483 34.628C157.615 34.532 157.795 34.418 158.023 34.286C158.251 34.154 158.527 34.04 158.851 33.944C159.187 33.848 159.559 33.8 159.967 33.8C160.219 33.8 160.459 33.824 160.687 33.872C160.915 33.92 161.113 33.998 161.281 34.106C161.461 34.214 161.599 34.364 161.695 34.556C161.791 34.736 161.839 34.97 161.839 35.258V41H163.279V35.06C163.279 34.52 163.141 34.064 162.865 33.692C162.601 33.32 162.223 33.038 161.731 32.846C161.251 32.642 160.687 32.54 160.039 32.54C159.271 32.54 158.611 32.654 158.059 32.882C157.519 33.11 157.093 33.338 156.781 33.566L157.483 34.628ZM165.177 32.72V34.07H169.317V32.72H165.177ZM166.527 29.84V41H167.967V29.84H166.527ZM174.685 41.18C175.573 41.18 176.341 41.006 176.989 40.658C177.649 40.298 178.195 39.77 178.627 39.074L177.457 38.336C177.157 38.84 176.791 39.218 176.359 39.47C175.927 39.71 175.429 39.83 174.865 39.83C174.301 39.83 173.821 39.71 173.425 39.47C173.029 39.23 172.729 38.882 172.525 38.426C172.321 37.97 172.219 37.418 172.219 36.77C172.231 36.134 172.339 35.6 172.543 35.168C172.759 34.724 173.059 34.388 173.443 34.16C173.839 33.92 174.313 33.8 174.865 33.8C175.333 33.8 175.741 33.902 176.089 34.106C176.437 34.31 176.707 34.592 176.899 34.952C177.103 35.312 177.205 35.738 177.205 36.23C177.205 36.314 177.187 36.422 177.151 36.554C177.115 36.674 177.079 36.764 177.043 36.824L177.619 35.996H171.679V37.22H178.753C178.753 37.196 178.753 37.142 178.753 37.058C178.765 36.962 178.771 36.872 178.771 36.788C178.771 35.912 178.615 35.156 178.303 34.52C177.991 33.884 177.541 33.398 176.953 33.062C176.377 32.714 175.681 32.54 174.865 32.54C174.049 32.54 173.329 32.72 172.705 33.08C172.093 33.44 171.613 33.944 171.265 34.592C170.929 35.24 170.761 35.996 170.761 36.86C170.761 37.712 170.923 38.462 171.247 39.11C171.583 39.758 172.045 40.268 172.633 40.64C173.233 41 173.917 41.18 174.685 41.18Z" fill="white"/>
</svg>
